<svg width="208" height="60" viewBox="0 0 208 60" fill="none" xmlns="http://www.w3.org/2000/svg">
<g clip-path="url(#clip0_74_735)">
<path d="M24.6357 16.8719C24.6357 16.8719 28.7615 10.351 45.8961 10.6041C63.0306 10.8572 69.6612 10.8572 80.1652 12.8621C90.6692 14.867 103.432 17.2515 114.189 18.3772C124.945 19.5029 141.707 15.7462 149.208 15.24C156.716 14.7404 162.47 14.3608 172.847 18.4971C183.232 22.6334 191.111 27.649 191.111 27.649C191.111 27.649 191.862 29.4074 188.985 27.9021C186.109 26.3967 179.857 23.3861 176.601 22.6334C173.352 21.8807 171.472 23.0064 173.472 24.6383C175.472 26.2702 177.724 28.022 176.475 27.7755C175.226 27.5224 172.847 25.5175 170.974 24.1387C169.1 22.76 167.971 21.3812 167.971 21.3812L160.716 19.3763C160.716 19.3763 162.589 20.7551 164.091 22.5135C165.592 24.272 165.845 26.2768 165.845 26.2768C165.845 26.2768 158.463 18.2506 150.962 19.0033C143.455 19.756 139.329 26.0237 139.329 26.0237C139.329 26.0237 139.076 24.0188 140.704 22.387C142.332 20.7551 144.704 18.4971 144.704 18.4971C144.704 18.4971 134.572 20.502 120.812 20.3754C107.053 20.2489 96.549 15.8594 78.285 14.9802C60.021 14.101 52.0217 15.6063 52.0217 15.6063C52.0217 15.6063 56.1476 17.3648 58.1474 20.2489C60.1472 23.133 60.1472 24.8914 60.1472 24.8914C60.1472 24.8914 54.6461 17.871 49.7628 17.2449C44.8862 16.6188 39.2588 18.4971 37.0066 21.1347C34.7543 23.7724 33.8773 24.8981 33.8773 24.8981L23.6191 25.0246C23.6191 25.0246 26.4959 21.3879 29.0007 20.6352C31.5054 19.8825 35.505 20.2622 35.505 20.2622L37.1328 18.7569L32.2562 18.3839C32.2562 18.3839 31.7579 15.9993 29.3794 15.9993C27.0009 15.9993 24.629 16.8785 24.629 16.8785L24.6357 16.8719Z" fill="#231F20"/>
<path d="M23.1538 18.5902C23.0209 18.5902 22.9877 18.4103 23.1073 18.3571C24.0042 17.9974 25.818 17.3713 26.9275 17.7243C28.4423 18.2039 28.9606 19.4161 28.2297 19.9556C27.4989 20.4952 25.6652 21.2412 24.2235 22.3935C22.7884 23.5458 21.752 24.6381 21.752 24.6381C21.752 24.6381 22.4961 22.3135 23.785 21.4077C25.0672 20.5018 26.6618 19.3495 25.8512 18.9499C25.2931 18.6701 23.9311 18.6035 23.1472 18.5902H23.1538Z" fill="#ED1C24"/>
<path d="M63.0371 16.7452C63.0371 16.7452 77.7932 16.3722 87.3006 17.9974C96.808 19.6293 104.309 21.5076 118.447 22.2603C127.297 22.7332 136.957 21.5076 136.957 21.5076C136.957 21.5076 126.699 25.2709 120.194 25.6439C113.69 26.0169 87.0481 26.0169 87.0481 26.0169L86.676 23.7589C86.676 23.7589 79.5472 17.2381 63.0371 16.7385V16.7452Z" fill="#ED1C24"/>
<path d="M134.764 11.2568C130.087 9.26522 124.128 5.86824 124.128 5.86824L125.064 3.87668C125.064 3.87668 115.942 0.239908 101.326 0.000121483C86.7092 -0.233005 60.9907 9.73147 60.9907 9.73147C60.9907 9.73147 72.2122 9.85136 80.2845 11.6098C92.4296 14.2541 103.904 15.8327 117.112 16.5321C130.326 17.2381 141.428 14.7737 141.428 14.7737C141.428 14.7737 139.442 13.2483 134.764 11.2568ZM129.037 14.5405C121.556 14.1875 115.477 15.4797 97.8178 13.2483C80.165 11.0237 77.8263 9.61158 76.4245 9.61158C75.0226 9.61158 71.8668 8.79231 77.3612 7.73325C77.3612 7.73325 93.6122 2.81096 104.601 3.27721C115.59 3.74346 122.254 7.84648 125.994 9.72481C129.735 11.6031 133.01 13.3616 133.01 13.3616C133.01 13.3616 136.518 14.8869 129.037 14.5339V14.5405Z" fill="#231F20"/>
<path d="M16.231 31.1123L13.7993 42.9151H13.3941L10.9558 31.1123H2.02638L0 55.9302V59.5937H8.5241V46.5719H8.92938L10.7564 55.5239H16.437L18.264 46.5719H18.6693V59.5937H27.1934V55.9302L25.1604 31.1123H16.231Z" fill="#231F20"/>
<path d="M37.5445 42.7087H37.1326L35.5115 31.1123H27.5986V34.7757L33.2792 51.4542V59.5937H41.192V51.4542L46.8792 34.7757V31.1123H38.9597L37.5445 42.7087Z" fill="#231F20"/>
<path d="M73.0559 45.7993C72.3782 45.3397 71.5677 45.0533 70.6176 44.9467V44.5404C71.4016 44.4072 72.0792 44.1341 72.644 43.7278C73.9993 42.8086 74.6704 41.3166 74.6704 39.2518V37.2203C74.6704 35.3752 74.1123 33.8965 73.0094 32.7842C71.8999 31.6719 70.4249 31.119 68.5846 31.119H57.8281V59.6004H69.3951C71.2355 59.6004 72.7104 59.0475 73.8199 57.9352C74.9295 56.8228 75.4809 55.3442 75.4809 53.4991V50.6483C75.4809 48.4236 74.6704 46.8117 73.0426 45.806L73.0559 45.7993ZM65.5483 37.6199H66.9701V41.8894H65.5483V37.6199ZM67.7807 53.0795H65.5483V48.4037H67.7807V53.0795Z" fill="#231F20"/>
<path d="M94.8478 47.5111C95.6052 46.5586 95.9839 45.433 95.9839 44.1341V37.2203C95.9839 35.3752 95.4259 33.8965 94.323 32.7842C93.2134 31.6719 91.7385 31.119 89.8981 31.119H78.5371V59.6004H86.45V50.242H87.0612L89.0876 59.6004H96.5952V55.937L93.7516 48.6101C94.1569 48.337 94.5223 47.9707 94.8478 47.5111ZM88.0711 43.3215H86.244V38.2327H88.0711V43.3215Z" fill="#231F20"/>
<path d="M111.205 30.7061H105.319C103.478 30.7061 102.003 31.2656 100.894 32.3712C99.7844 33.4836 99.2329 34.9623 99.2329 36.8073V53.8988C99.2329 55.7438 99.7844 57.2225 100.894 58.3348C102.003 59.4472 103.478 60 105.319 60H111.205C113.046 60 114.52 59.4472 115.63 58.3348C116.74 57.2225 117.291 55.7438 117.291 53.8988V36.8073C117.291 34.9623 116.733 33.4836 115.63 32.3712C114.52 31.2589 113.046 30.7061 111.205 30.7061ZM109.378 52.6799H107.146V38.0329H109.378V52.6799Z" fill="#231F20"/>
<path d="M132.917 31.1123L128.453 55.9302V59.5937H136.166L136.571 54.9112H140.226L140.631 59.5937H148.344V55.9302L143.88 31.1123H132.924H132.917ZM137.382 47.9973L138.193 38.8454H138.598L139.408 47.9973H137.382Z" fill="#231F20"/>
<path d="M160.111 52.6798H157.879V31.1123H149.966V53.8987C149.966 55.7437 150.517 57.2224 151.627 58.3348C152.736 59.4471 154.211 60 156.052 60H161.938C163.778 60 165.253 59.4471 166.363 58.3348C167.472 57.2224 168.024 55.7437 168.024 53.8987V31.1123H160.111V52.6798Z" fill="#231F20"/>
<path d="M170.256 38.8454H175.325V59.5937H183.238V38.8454H186.693L188.314 37.2135V31.1123H170.256V38.8454Z" fill="#231F20"/>
<path d="M206.332 32.3712C205.223 31.2589 203.748 30.7061 201.907 30.7061H196.021C194.181 30.7061 192.706 31.2656 191.596 32.3712C190.487 33.4836 189.935 34.9623 189.935 36.8073V53.8988C189.935 55.7438 190.487 57.2225 191.596 58.3348C192.706 59.4472 194.181 60 196.021 60H201.907C203.748 60 205.223 59.4472 206.332 58.3348C207.442 57.2225 207.993 55.7438 207.993 53.8988V36.8073C207.993 34.9623 207.435 33.4836 206.332 32.3712ZM195.031 36.7607H196.845L197.33 37.2469V39.3051H197.994L198.293 37.853C198.393 37.4068 198.579 37.0737 198.858 36.8539C199.137 36.6341 199.555 36.5209 200.1 36.5209H201.668C202.213 36.5209 202.651 36.6874 202.984 37.0138C203.316 37.3468 203.475 37.7864 203.475 38.3326V41.663H201.183V38.8788H200.399L200.1 40.3308C200.001 40.7838 199.814 41.1168 199.535 41.3366C199.256 41.5564 198.845 41.663 198.286 41.663H196.838C196.293 41.663 195.855 41.4965 195.523 41.1701C195.19 40.8371 195.031 40.3974 195.031 39.8513V36.7673V36.7607ZM203.482 51.1013L200.705 51.7074V51.8872H203.482V54.2451H195.031V50.8548C195.031 50.3086 195.197 49.869 195.523 49.536C195.855 49.2029 196.293 49.0364 196.838 49.0364H198.891C199.276 49.0364 199.609 49.1497 199.894 49.3761C200.034 49.476 200.14 49.5826 200.22 49.7025L202.392 48.8566H203.482V51.0946V51.1013ZM203.602 46.1989C203.602 46.7451 203.435 47.1847 203.11 47.5178C202.778 47.8508 202.339 48.0107 201.794 48.0107H195.031V45.6528H201.429V44.9867H195.031V42.6288H201.794C202.339 42.6288 202.778 42.7953 203.11 43.1283C203.442 43.4614 203.602 43.901 203.602 44.4472V46.1989Z" fill="#231F20"/>
<path d="M198.652 51.4077H197.144V51.9539H198.652V51.4077Z" fill="#231F20"/>
</g>
<defs>
<clipPath id="clip0_74_735">
<rect width="208" height="60" fill="white"/>
</clipPath>
</defs>
</svg>
