<svg width="12" height="8" viewBox="0 0 12 8" fill="none" xmlns="http://www.w3.org/2000/svg">
<path fill-rule="evenodd" clip-rule="evenodd" d="M0.632 0H11.3673C11.7153 0 12 0.284667 12 0.632667V0.700667C12 1.04867 11.7153 1.33333 11.3673 1.33333H0.632C0.284 1.33333 0 1.04867 0 0.700667V0.632667C0 0.284667 0.284 0 0.632 0ZM11.3673 3.33333H0.632C0.284 3.33333 0 3.618 0 3.966V4.034C0 4.382 0.284 4.66667 0.632 4.66667H11.3673C11.7153 4.66667 12 4.382 12 4.034V3.966C12 3.618 11.7153 3.33333 11.3673 3.33333ZM11.3673 6.66667H0.632C0.284 6.66667 0 6.95133 0 7.29933V7.36733C0 7.71533 0.284 8 0.632 8H11.3673C11.7153 8 12 7.71533 12 7.36733V7.29933C12 6.95133 11.7153 6.66667 11.3673 6.66667Z" fill="black"/>
</svg>
