<svg width="12" height="12" viewBox="0 0 12 12" fill="none" xmlns="http://www.w3.org/2000/svg">
<path fill-rule="evenodd" clip-rule="evenodd" d="M10.8002 9.24041C10.8002 9.17381 10.796 9.1078 10.7876 9.0436L8.01486 8.40697C7.96026 8.51258 7.90025 8.62778 7.84385 8.73399C7.57084 9.25601 7.37523 9.63523 6.86761 9.43182C4.88392 8.73579 3.26445 7.11632 2.55942 5.10803C2.34521 4.63761 2.75323 4.424 3.27045 4.15339C3.37545 4.09878 3.48886 4.03938 3.59266 3.98478L2.95663 1.21266C2.89003 1.20366 2.82523 1.20006 2.75983 1.20006C1.89999 1.20006 1.19976 1.89969 1.19976 2.75952C1.19976 7.19312 4.80652 10.8005 9.24011 10.8005C10.1005 10.8005 10.8002 10.1008 10.8002 9.24041M11.9621 8.78319C11.9873 8.93199 12.0005 9.085 12.0005 9.24041C12.0005 10.7621 10.7627 12.0005 9.24041 12.0005C4.14558 12.0005 0 7.85495 0 2.75952C0 1.23785 1.23785 0 2.76012 0C2.91613 0 3.07034 0.0132006 3.21974 0.0390017C3.36555 0.0624028 3.51256 0.0996044 3.65476 0.148807C3.85037 0.21661 3.99678 0.379817 4.04298 0.581426L4.86441 4.15998C4.91002 4.35679 4.85301 4.5638 4.71261 4.70961C4.631 4.79541 4.6292 4.79721 3.88517 5.18603C4.4876 6.49109 5.53464 7.53393 6.8127 8.11656C7.20332 7.37193 7.20512 7.36953 7.29032 7.28732C7.43673 7.14752 7.64254 7.09171 7.83995 7.13552L11.4185 7.95695C11.6201 8.00315 11.7839 8.15016 11.8511 8.34517C11.9003 8.48617 11.9381 8.63318 11.9621 8.78319M6.59999 1.20005C8.9155 1.20005 10.8002 3.08414 10.8002 5.40024C10.8002 5.73145 11.0684 6.00026 11.4002 6.00026C11.732 6.00026 12.0002 5.73145 12.0002 5.40024C12.0002 2.42231 9.57792 0 6.59999 0C6.26878 0 5.99997 0.268212 5.99997 0.600026C5.99997 0.931241 6.26878 1.20005 6.59999 1.20005M5.99997 3.00013C5.99997 2.66832 6.26878 2.4001 6.59999 2.4001C8.25427 2.4001 9.60013 3.74596 9.60013 5.40024C9.60013 5.73145 9.33191 6.00026 9.0001 6.00026C8.66828 6.00026 8.40007 5.73145 8.40007 5.40024C8.40007 4.40719 7.59244 3.60016 6.59999 3.60016C6.26878 3.60016 5.99997 3.33135 5.99997 3.00013" fill="black"/>
</svg>
