<svg width="6" height="6" viewBox="0 0 6 6" fill="none" xmlns="http://www.w3.org/2000/svg">
<path fill-rule="evenodd" clip-rule="evenodd" d="M3.70712 3L5.85362 0.853503C6.04912 0.658003 6.04912 0.342003 5.85362 0.146503C5.65812 -0.0489971 5.34213 -0.0489971 5.14663 0.146503L3.00012 2.293L0.853625 0.146503C0.658125 -0.0489971 0.342125 -0.0489971 0.146625 0.146503C-0.048875 0.342003 -0.048875 0.658003 0.146625 0.853503L2.29312 3L0.146625 5.1465C-0.048875 5.342 -0.048875 5.658 0.146625 5.8535C0.244125 5.951 0.372125 6 0.500125 6C0.628125 6 0.756125 5.951 0.853625 5.8535L3.00012 3.707L5.14663 5.8535C5.24413 5.951 5.37212 6 5.50012 6C5.62812 6 5.75612 5.951 5.85362 5.8535C6.04912 5.658 6.04912 5.342 5.85362 5.1465L3.70712 3Z" fill="black"/>
</svg>
