<svg width="10" height="10" viewBox="0 0 10 10" fill="none" xmlns="http://www.w3.org/2000/svg">
<path fill-rule="evenodd" clip-rule="evenodd" d="M4.5 8.5C4.224 8.5 4 8.276 4 8C4 7.724 4.224 7.5 4.5 7.5C4.776 7.5 5 7.724 5 8C5 8.276 4.776 8.5 4.5 8.5M9.5 7.5H5.9075C5.7005 6.9195 5.151 6.5 4.5 6.5C3.849 6.5 3.2995 6.9195 3.0925 7.5H0.5C0.2235 7.5 0 7.7235 0 8C0 8.2765 0.2235 8.5 0.5 8.5H3.0925C3.2995 9.0805 3.849 9.5 4.5 9.5C5.151 9.5 5.7005 9.0805 5.9075 8.5H9.5C9.7765 8.5 10 8.2765 10 8C10 7.7235 9.7765 7.5 9.5 7.5M8.5 5.5C8.224 5.5 8 5.276 8 5C8 4.724 8.224 4.5 8.5 4.5C8.776 4.5 9 4.724 9 5C9 5.276 8.776 5.5 8.5 5.5M8.5 3.5C7.849 3.5 7.2995 3.9195 7.0925 4.5H0.5C0.2235 4.5 0 4.7235 0 5C0 5.2765 0.2235 5.5 0.5 5.5H7.0925C7.2995 6.0805 7.849 6.5 8.5 6.5C9.327 6.5 10 5.827 10 5C10 4.173 9.327 3.5 8.5 3.5M2.5 1.5C2.776 1.5 3 1.724 3 2C3 2.276 2.776 2.5 2.5 2.5C2.224 2.5 2 2.276 2 2C2 1.724 2.224 1.5 2.5 1.5M0.5 2.5H1.0925C1.2995 3.0805 1.849 3.5 2.5 3.5C3.151 3.5 3.7005 3.0805 3.9075 2.5H9.5C9.7765 2.5 10 2.2765 10 2C10 1.7235 9.7765 1.5 9.5 1.5H3.9075C3.7005 0.9195 3.151 0.5 2.5 0.5C1.849 0.5 1.2995 0.9195 1.0925 1.5H0.5C0.2235 1.5 0 1.7235 0 2C0 2.2765 0.2235 2.5 0.5 2.5" fill="white"/>
</svg>
