<svg width="18" height="18" viewBox="0 0 18 18" fill="none" xmlns="http://www.w3.org/2000/svg">
<path fill-rule="evenodd" clip-rule="evenodd" d="M12.3334 8.16663H9.83342V5.66663C9.83342 5.20579 9.46008 4.83329 9.00008 4.83329C8.54008 4.83329 8.16675 5.20579 8.16675 5.66663V8.99996C8.16675 9.46079 8.54008 9.83329 9.00008 9.83329H12.3334C12.7942 9.83329 13.1667 9.46079 13.1667 8.99996C13.1667 8.53913 12.7942 8.16663 12.3334 8.16663ZM9.00008 15.6666C5.32425 15.6666 2.33341 12.6758 2.33341 8.99996C2.33341 5.32413 5.32425 2.33329 9.00008 2.33329C12.6759 2.33329 15.6667 5.32413 15.6667 8.99996C15.6667 12.6758 12.6759 15.6666 9.00008 15.6666ZM9.00008 0.666626C4.40508 0.666626 0.666748 4.40496 0.666748 8.99996C0.666748 13.595 4.40508 17.3333 9.00008 17.3333C13.5951 17.3333 17.3334 13.595 17.3334 8.99996C17.3334 4.40496 13.5951 0.666626 9.00008 0.666626Z" fill="#0084DB"/>
</svg>
