<svg width="14" height="18" viewBox="0 0 14 18" fill="none" xmlns="http://www.w3.org/2000/svg">
<path fill-rule="evenodd" clip-rule="evenodd" d="M6.99992 8.16621C6.31075 8.16621 5.74992 7.60538 5.74992 6.91621C5.74992 6.22704 6.31075 5.66621 6.99992 5.66621C7.68909 5.66621 8.24992 6.22704 8.24992 6.91621C8.24992 7.60538 7.68909 8.16621 6.99992 8.16621M6.99992 3.99954C5.39159 3.99954 4.08325 5.30788 4.08325 6.91621C4.08325 8.52454 5.39159 9.83288 6.99992 9.83288C8.60825 9.83288 9.91659 8.52454 9.91659 6.91621C9.91659 5.30788 8.60825 3.99954 6.99992 3.99954M6.99992 15.3716C5.60409 14.0516 1.99992 10.3458 1.99992 7.26829C1.99992 4.54746 4.24242 2.33329 6.99992 2.33329C9.75742 2.33329 11.9999 4.54746 11.9999 7.26829C11.9999 10.3458 8.39575 14.0516 6.99992 15.3716M6.99992 0.666626C3.32409 0.666626 0.333252 3.62746 0.333252 7.26829C0.333252 11.8308 6.20742 16.9175 6.45742 17.1316C6.61409 17.2658 6.80659 17.3333 6.99992 17.3333C7.19325 17.3333 7.38575 17.2658 7.54242 17.1316C7.79242 16.9175 13.6666 11.8308 13.6666 7.26829C13.6666 3.62746 10.6758 0.666626 6.99992 0.666626" fill="#0084DB"/>
</svg>
